<svg width="300" height="350" viewBox="0 0 300 350" fill="none" xmlns="http://www.w3.org/2000/svg">
<path d="M114.313 208.044C115.953 251.544 115.553 295.114 113.133 338.584C115.813 338.584 117.993 338.554 120.673 338.554" stroke="black" stroke-width="7" stroke-linecap="round" stroke-linejoin="round"/>
<path d="M95.5327 210.004C97.2227 252.694 98.7927 295.504 97.8027 338.224C94.8727 339.074 90.3027 339.844 90.3027 339.844" stroke="black" stroke-width="7" stroke-linecap="round" stroke-linejoin="round"/>
<path d="M69.1328 212.784C70.6328 238.584 71.1028 261.414 72.7528 287.664C75.5828 291.394 77.4628 295.564 78.1628 298.344" stroke="black" stroke-width="7" stroke-linecap="round" stroke-linejoin="round"/>
<path d="M71.609 307.871C71.4104 297.347 71.7724 290.673 72.7547 287.66C69.4974 290.994 67.8184 300.302 67.8184 303.826" stroke="black" stroke-width="7" stroke-linecap="round" stroke-linejoin="round"/>
<path d="M206.803 166.024C213.713 183.204 214.253 202.284 212.733 220.744C212.063 228.894 210.953 237.204 207.343 244.544C203.723 251.884 197.183 258.214 189.123 259.644C182.493 260.814 175.563 258.544 170.143 254.534C164.733 250.534 160.683 244.944 157.433 239.044C151.603 228.474 148.103 216.634 147.203 204.594" stroke="black" stroke-width="7" stroke-linecap="round" stroke-linejoin="round"/>
<path d="M206.8 166.026C203.254 163.753 199.512 161.703 195.564 160.234" stroke="black" stroke-width="7" stroke-linecap="round" stroke-linejoin="round"/>
<path d="M212.867 139.168C209.902 147.799 206.983 156.903 206.801 166.026C209.315 158.419 213.592 151.026 218.679 144.836" stroke="black" stroke-width="7" stroke-linecap="round" stroke-linejoin="round"/>
<path d="M219.466 155.521C214.766 158.341 209.929 161.525 206.801 166.026" stroke="black" stroke-width="7" stroke-linecap="round" stroke-linejoin="round"/>
<path d="M174.164 201.689C172.784 168.526 165.994 135.595 154.144 104.59C147.108 86.1816 138.052 68.1012 124.075 54.2078C110.097 40.3145 90.5258 31.0344 70.9237 33.0698C62.1177 33.9842 53.0597 37.5289 48.0192 44.8072C42.7824 52.369 42.8493 62.269 43.114 71.4633C44.4931 119.357 45.8723 167.251 47.2514 215.145C88.7261 210.58 132.689 206.254 174.164 201.689Z" fill="#DA002F" stroke="#DA002F" stroke-width="7" stroke-linecap="round" stroke-linejoin="round"/>
<path d="M58.7543 65.2537C55.6243 70.3637 52.3643 75.6037 47.5543 79.1737C46.2843 80.1037 44.8843 80.9037 43.4043 81.5137" stroke="black" stroke-width="7" stroke-linecap="round" stroke-linejoin="round"/>
<path d="M72.853 76.8937C71.973 74.4837 71.913 71.5037 72.083 68.8937C72.283 65.7037 72.563 62.3337 74.383 59.7037C76.193 57.0637 80.103 55.5837 82.703 57.4537C84.733 58.9137 85.203 61.8637 84.473 64.2537C83.753 66.6437 82.073 68.6137 80.433 70.4937C78.753 72.4337 75.933 74.9937 72.853 76.8937ZM72.853 76.8937C67.413 80.2537 61.173 81.5637 59.033 73.7437C58.283 70.9937 58.513 68.0937 58.753 65.2537" stroke="black" stroke-width="7" stroke-linecap="round" stroke-linejoin="round"/>
<path d="M109.864 42.9636C103.504 54.5236 96.7035 65.8436 88.0535 75.7636C85.0335 79.2236 80.5035 82.7936 76.3135 80.9036C74.5635 80.1136 73.4935 78.6536 72.8535 76.8936" stroke="black" stroke-width="7" stroke-linecap="round" stroke-linejoin="round"/>
<path d="M104.322 86.6667V86.2653" stroke="black" stroke-width="7" stroke-linecap="round" stroke-linejoin="round"/>
<path d="M115.25 89.9449V89.5435" stroke="black" stroke-width="7" stroke-linecap="round" stroke-linejoin="round"/>
<path d="M94.7832 101.946C95.2983 107.965 96.8023 113.899 99.2166 119.437C100.642 122.706 102.484 125.954 105.417 127.984C109.085 130.525 114.207 130.707 118.113 128.551C122.02 126.395 124.579 122.048 124.705 117.588" stroke="black" stroke-width="7" stroke-linecap="round" stroke-linejoin="round"/>
<path d="M226.885 188.728C237.161 189.264 247.324 191.672 256.784 195.721" stroke="#CCCCCC" stroke-width="7" stroke-linecap="round" stroke-linejoin="round"/>
<path d="M228.984 169.874C235.018 169.477 241.161 170.933 246.375 173.994" stroke="#CCCCCC" stroke-width="7" stroke-linecap="round" stroke-linejoin="round"/>
</svg>
