<svg width="300" height="350" viewBox="0 0 300 350" fill="none" xmlns="http://www.w3.org/2000/svg">
<path d="M199.539 249.219C203.32 255.016 207.132 260.853 211.948 265.824C214.445 268.401 217.199 270.729 220.156 272.761C221.439 273.643 222.942 274.507 224.465 274.184C225.816 273.897 226.83 272.701 227.282 271.395C227.733 270.089 227.718 268.674 227.679 267.293C227.28 252.9 223.074 224.775 218.828 211.016" stroke="black" stroke-width="7" stroke-linecap="round" stroke-linejoin="round"/>
<path d="M116.407 152.074C106.566 130.141 96.7163 108.188 85.4397 86.9576C83.7733 83.8204 81.9234 80.5396 78.8315 78.7908C75.0586 76.6568 70.3578 77.3147 66.1657 78.4169C62.3359 79.4238 58.411 80.8664 55.8003 83.8439C52.6638 87.4213 52.0117 92.6534 52.9433 97.319C53.8748 101.985 56.1875 106.24 58.4409 110.43C73.2468 137.96 86.7927 166.168 99.022 194.935" fill="#FFCC00"/>
<path d="M116.407 152.074C106.566 130.141 96.7163 108.188 85.4397 86.9576C83.7733 83.8204 81.9234 80.5396 78.8315 78.7908C75.0586 76.6568 70.3578 77.3147 66.1657 78.4169C62.3359 79.4238 58.411 80.8664 55.8003 83.8439C52.6638 87.4213 52.0117 92.6534 52.9433 97.319C53.8748 101.985 56.1875 106.24 58.4409 110.43C73.2468 137.96 86.7927 166.168 99.022 194.935" stroke="#FFCC00" stroke-width="7" stroke-linecap="round" stroke-linejoin="round"/>
<path d="M55.4961 104.686C64.9261 97.6361 76.2361 93.1061 87.9261 91.7061" stroke="black" stroke-width="7" stroke-linecap="round" stroke-linejoin="round"/>
<path d="M94.5367 104.806C82.8367 105.966 71.4067 109.826 61.3867 115.966" stroke="black" stroke-width="7" stroke-linecap="round" stroke-linejoin="round"/>
<path d="M195.338 216.829C193.613 257.144 192.824 297.499 192.97 337.851C195.015 337.949 203.048 337.145 203.048 337.145" stroke="black" stroke-width="7" stroke-linecap="round" stroke-linejoin="round"/>
<path d="M163.852 221.854C167.476 260.407 171.838 298.891 176.933 337.277C173.24 337.035 169.255 335.481 166.636 332.866" stroke="black" stroke-width="7" stroke-linecap="round" stroke-linejoin="round"/>
<path d="M128.979 208.275C162.981 212.756 197.289 214.917 231.585 214.741C236.301 180.18 239.825 154.55 244.541 119.989C247.193 100.554 249.54 79.4443 239.678 62.4886C230.176 46.1513 210.818 37.4063 191.945 36.4011C175.726 35.5373 158.344 40.3127 147.87 52.7273C138.248 64.133 135.924 79.812 133.977 94.6066C128.64 135.143 125.303 166.68 119.967 207.217C122.244 207.424 126.712 207.976 128.979 208.275Z" fill="#0D80F2" stroke="#0D80F2" stroke-width="7" stroke-linecap="round" stroke-linejoin="round"/>
<path d="M191.791 130.95C186.418 139.815 176.664 145.873 166.336 146.761" stroke="black" stroke-width="7" stroke-linecap="round" stroke-linejoin="round"/>
<path d="M187.237 136.786C188.277 137.776 189.347 138.736 190.367 139.736C192.647 141.976 194.767 144.636 195.267 147.796C195.767 150.956 194.127 154.636 191.037 155.456C188.417 156.146 185.737 154.676 183.557 153.066C180.367 150.706 177.527 147.886 175.127 144.716" stroke="black" stroke-width="7" stroke-linecap="round" stroke-linejoin="round"/>
<path d="M165.92 116.647L165.97 115.729" stroke="black" stroke-width="7" stroke-linecap="round" stroke-linejoin="round"/>
<path d="M179.006 115.687L179.056 114.769" stroke="black" stroke-width="7" stroke-linecap="round" stroke-linejoin="round"/>
<path d="M160.34 51.1545C162.272 58.9991 164.223 66.8987 167.601 74.2374C170.979 81.5761 175.914 88.4031 182.718 92.7597C184.886 94.1479 187.3 95.2932 189.871 95.4333C192.441 95.5735 195.189 94.5409 196.565 92.3656C197.946 90.1834 197.724 87.3772 197.273 84.8345C196.159 78.5508 193.938 72.4648 190.744 66.9399C193.298 73.6833 196.987 79.9954 201.609 85.5304C203.762 88.1088 206.234 90.598 209.393 91.7394C212.553 92.8808 216.544 92.315 218.559 89.6272C220.451 87.1033 220.127 83.5763 219.345 80.5204C218.753 78.2111 217.198 75.4644 214.845 75.8479C212.834 76.1758 211.97 78.6523 212.096 80.6862C212.337 84.5436 214.615 87.9824 217.23 90.828C219.566 93.3697 222.324 95.6596 225.615 96.7024C228.906 97.7452 232.807 97.3409 235.36 95.0171C237.914 92.6933 238.548 88.2888 236.227 85.7335" stroke="black" stroke-width="7" stroke-linecap="round" stroke-linejoin="round"/>
<path d="M152.179 143.821C124.348 141.62 96.2961 142.217 68.584 145.601C78.951 181.346 86.0574 218.465 90.4285 255.426C117.486 252.661 144.955 251.677 172.074 253.765C169.656 215.877 161.568 164.481 152.179 143.821Z" fill="#CCCCCC" stroke="#CCCCCC" stroke-width="7" stroke-linecap="round" stroke-linejoin="round"/>
<path d="M165.742 198.323C168.815 199.793 173.844 202.532 174.991 211.036C183.12 223.5 191.41 236.755 199.538 249.219" stroke="black" stroke-width="7" stroke-linecap="round" stroke-linejoin="round"/>
<path d="M173.298 208.449C166.655 207.871 160.203 205.252 155.037 201.035" stroke="black" stroke-width="7" stroke-linecap="round" stroke-linejoin="round"/>
<path d="M173.634 210.557C167.816 211.601 161.688 210.853 156.291 208.442" stroke="black" stroke-width="7" stroke-linecap="round" stroke-linejoin="round"/>
<path d="M174.749 214.63C170.012 216.539 164.697 216.988 159.707 215.9" stroke="black" stroke-width="7" stroke-linecap="round" stroke-linejoin="round"/>
</svg>
